<svg xmlns="http://www.w3.org/2000/svg" viewBox="0 0 512 512">
  <rect width="512" height="512" rx="96" ry="96" fill="#DC2626"/>
  <g transform="translate(68, 68) scale(0.734)">
    <path d="M352 320c88.4 0 160-71.6 160-160c0-15.3-2.2-30.1-6.2-44.2c-3.1-10.8-16.4-13.2-24.3-5.3l-76.8 76.8c-3 3-7.1 4.7-11.3 4.7H336c-8.8 0-16-7.2-16-16V124.8c0-4.2 1.7-8.3 4.7-11.3l76.8-76.8c7.9-7.9 5.4-21.2-5.3-24.3C382.1 9.2 367.3 7 352 7C263.6 7 192 78.6 192 167c0 12.4 1.4 24.4 4.1 36L60.1 339c-15.6 15.6-24.1 36.9-24.1 59c0 46.1 37.4 83.5 83.5 83.5c22.1 0 43.4-8.5 59-24.1l136-136c11.6 2.7 23.6 4.1 36 4.1z" fill="white"/>
  </g>
</svg>